<?xml version="1.0" encoding="utf-8"?>
<!-- Generator: Adobe Illustrator 24.3.0, SVG Export Plug-In . SVG Version: 6.00 Build 0)  -->
<svg version="1.1" id="_x31_" xmlns="http://www.w3.org/2000/svg" xmlns:xlink="http://www.w3.org/1999/xlink" x="0px" y="0px"
	 width="1200px" height="1200px" viewBox="0 0 1200 1200" enable-background="new 0 0 1200 1200" xml:space="preserve">
<g>
	<path fill="#4B9A47" d="M1128.306,1200H71.694C32.099,1200,0,1167.901,0,1128.306V71.694C0,32.099,32.099,0,71.694,0h1056.612
		C1167.901,0,1200,32.099,1200,71.694v1056.612C1200,1167.901,1167.901,1200,1128.306,1200z"/>
	<g>
		<path fill="#FFFFFF" d="M251.414,202.411v792.621c0,30.013,24.331,54.344,54.344,54.344h612.917
			c16.716,0,30.268-13.551,30.268-30.268V420.58L677.939,149.577l-376.472,2.454C273.771,152.211,251.414,174.714,251.414,202.411z"
			/>
		<path d="M918.676,1078.376H305.758c-45.956,0-83.344-37.388-83.344-83.344V202.411c0-43.487,35.378-79.097,78.865-79.38
			l388.594-2.533l288.069,288.07v610.541C977.942,1051.788,951.355,1078.376,918.676,1078.376z M666.006,178.655l-364.349,2.375
			c-11.713,0.076-21.243,9.668-21.243,21.381v792.621c0,13.975,11.37,25.344,25.344,25.344h612.917c0.698,0,1.267-0.568,1.267-1.268
			V432.592L666.006,178.655z"/>
	</g>
	<rect x="449.529" y="595.822" width="302.675" height="60.076"/>
	<rect x="449.529" y="759.771" width="181.605" height="60.076"/>
	<path d="M864.547,919.645l-33.693,0.599l-22.668-28.276c47.751-52.006,73.916-119.016,73.916-190.056
		c0-75.146-29.264-145.795-82.4-198.932c-53.137-53.137-123.785-82.4-198.932-82.4s-145.795,29.264-198.932,82.4
		c-53.137,53.136-82.4,123.785-82.4,198.932s29.264,145.795,82.4,198.932c53.136,53.137,123.785,82.4,198.932,82.4
		c72.38,0,140.58-27.159,192.986-76.64l22.685,24.676l0.425,32.343c0,2.932,1.17,5.743,3.249,7.81l214.126,212.771l49.529-52.28
		L872.417,922.828C870.324,920.757,867.49,919.611,864.547,919.645z M600.77,920.244c-120.389,0-218.332-97.943-218.332-218.332
		S480.382,483.58,600.77,483.58s218.332,97.943,218.332,218.332S721.159,920.244,600.77,920.244z"/>
</g>
</svg>
