<svg width="1256" height="1256" viewBox="0 0 1256 1256" fill="none" xmlns="http://www.w3.org/2000/svg">
<path d="M378.014 0.515785L828.006 0.5C848.561 0.499279 868.275 8.66442 882.809 23.1992L1232.81 373.199C1247.34 387.734 1255.51 407.446 1255.51 428.001L1255.5 1178C1255.5 1220.8 1220.8 1255.5 1178 1255.5H378C335.198 1255.5 300.5 1220.8 300.5 1178V997.53C129.173 961.767 0.5 809.934 0.5 628C0.5 446.064 129.176 294.23 300.505 258.469L300.516 78.0107C300.519 35.2117 335.215 0.517288 378.014 0.515785Z" fill="white"/>
<path fill-rule="evenodd" clip-rule="evenodd" d="M378.015 40.5158L828.007 40.5C837.953 40.4997 847.492 44.4506 854.525 51.4835L1204.53 401.483C1211.56 408.516 1215.51 418.055 1215.51 428L1215.5 1178C1215.5 1198.71 1198.71 1215.5 1178 1215.5H378C357.289 1215.5 340.5 1198.71 340.5 1178V963.44C171.752 944.786 40.5 801.721 40.5 628C40.5 454.278 171.753 311.213 340.502 292.56L340.516 78.0133C340.518 57.3041 357.306 40.5165 378.015 40.5158ZM415.502 292.56C584.249 311.215 715.5 454.28 715.5 628C715.5 707.673 687.857 780.941 641.694 838.661L804.516 1001.48C819.161 1016.13 819.161 1039.87 804.516 1054.52C789.872 1069.16 766.128 1069.16 751.484 1054.52L588.661 891.694C540.123 930.513 480.59 956.236 415.5 963.438V1140.5H1140.5L1140.51 465.5H828.009C807.298 465.5 790.509 448.711 790.509 428V115.501L415.514 115.514L415.502 292.56ZM865.509 168.533L1087.48 390.5H865.509V168.533ZM378 365.5C233.025 365.5 115.5 483.025 115.5 628C115.5 772.975 233.025 890.5 378 890.5C450.498 890.5 516.071 861.16 563.616 813.616C611.16 766.071 640.5 700.498 640.5 628C640.5 483.025 522.975 365.5 378 365.5Z" fill="black"/>
<path fill-rule="evenodd" clip-rule="evenodd" d="M165.5 628C165.5 510.639 260.639 415.5 378 415.5C495.361 415.5 590.5 510.639 590.5 628C590.5 686.689 566.748 739.772 528.26 778.26C489.772 816.748 436.689 840.5 378 840.5C260.639 840.5 165.5 745.361 165.5 628ZM283 525.5C262.289 525.5 245.5 542.289 245.5 563C245.5 583.711 262.289 600.5 283 600.5H473C493.711 600.5 510.5 583.711 510.5 563C510.5 542.289 493.711 525.5 473 525.5H283ZM283 655.5C262.289 655.5 245.5 672.289 245.5 693C245.5 713.711 262.289 730.5 283 730.5H383C403.711 730.5 420.5 713.711 420.5 693C420.5 672.289 403.711 655.5 383 655.5H283Z" fill="#4B9A47"/>
</svg>
